HIERARCHY
ROOT Hips
{
	OFFSET 0.000000 0.000000 0.000000
	CHANNELS 6 Xposition Yposition Zposition Zrotation Yrotation Xrotation 
	JOINT LHipJoint
	{
		OFFSET 0.000000 0.000000 0.000000
		CHANNELS 3 Zrotation Yrotation Xrotation
		JOINT LeftUpLeg
		{
			OFFSET 1.363060 -1.794630 0.839290
			CHANNELS 3 Zrotation Yrotation Xrotation
			JOINT LeftLeg
			{
				OFFSET 2.448110 -6.726130 0.000000
				CHANNELS 3 Zrotation Yrotation Xrotation
				JOINT LeftFoot
				{
					OFFSET 2.562200 -7.039590 0.000000
					CHANNELS 3 Zrotation Yrotation Xrotation
					JOINT LeftToeBase
					{
						OFFSET 0.157640 -0.433110 2.322550
						CHANNELS 3 Zrotation Yrotation Xrotation
						End Site
						{
							OFFSET 0.000000 0.000000 0.000000
						}
					}
				}
			}
		}
	}
	JOINT RHipJoint
	{
		OFFSET 0.000000 0.000000 0.000000
		CHANNELS 3 Zrotation Yrotation Xrotation
		JOINT RightUpLeg
		{
			OFFSET -1.305520 -1.794630 0.839290
			CHANNELS 3 Zrotation Yrotation Xrotation
			JOINT RightLeg
			{
				OFFSET -2.542530 -6.985550 0.000000
				CHANNELS 3 Zrotation Yrotation Xrotation
				JOINT RightFoot
				{
					OFFSET -2.568260 -7.056230 0.000000
					CHANNELS 3 Zrotation Yrotation Xrotation
					JOINT RightToeBase
					{
						OFFSET -0.164730 -0.452590 2.363150
						CHANNELS 3 Zrotation Yrotation Xrotation
						End Site
						{
							OFFSET 0.000000 0.000000 0.000000
						}
					}
				}
			}
		}
	}
}
MOTION
Frames: 30
Frame Time: 0.008333
-0.366293 17.784661 -0.239011 66.036909 85.554772 67.295377 -11.215011 4.729189 -0.503300 0.272938 23.069719 -3.325765 -0.699205 1.514483 25.425193 0.874997 -1.913775 23.400912 -1.349301 -0.000000 -68.350300 9.642844 -0.989569 1.010459 15.029056 -15.328617 -23.720118 1.942105 1.166412 2.675587 -3.864212 -19.225824 -1.719610 -3.767901 0.000000 -48.838099
-0.161592 17.827570 -0.131047 69.250757 85.596011 70.286649 -11.052198 4.684852 -0.643123 0.939464 23.627813 -3.650612 -0.586629 1.554532 26.719017 1.009548 -2.230335 25.480107 -1.651800 -0.000000 -65.373100 9.867010 -1.030687 1.133353 15.086583 -14.614738 -22.974276 1.864842 1.137829 2.372373 -3.817733 -19.267644 -1.014953 -4.014200 0.000000 -48.598800
0.040635 17.860569 -0.027262 71.008895 85.563430 71.787725 -10.936340 4.617320 -0.815058 1.621948 24.313625 -3.958680 -0.490570 1.583054 27.990491 1.143801 -2.056970 27.004271 -1.686500 0.000000 -62.160300 10.026272 -1.085826 1.216389 15.219170 -13.929007 -22.312391 1.784382 1.060237 2.544524 -3.801464 -19.412243 -0.397985 -4.249300 0.000000 -47.934099
0.240905 17.883017 0.072518 71.523844 85.464444 72.013299 -10.862568 4.527246 -1.017367 2.310947 25.128575 -4.239225 -0.406692 1.602893 29.210376 1.272665 -1.342017 27.955092 -1.396400 0.000000 -58.960600 10.126773 -1.157850 1.262231 15.424381 -13.316398 -21.722012 1.702118 0.943612 3.087476 -3.809506 -19.649999 0.180660 -4.491200 0.000000 -46.846400
0.439418 17.894330 0.168594 71.077346 85.297853 71.230734 -10.822074 4.418223 -1.249225 3.002464 26.058680 -4.451134 -0.331800 1.617030 30.331988 1.396293 -0.076571 28.355892 -0.771600 0.000000 -56.149800 10.182717 -1.243828 1.259057 15.684780 -12.861457 -21.159545 1.621463 0.799292 3.878399 -3.826460 -19.926007 0.749537 -4.736500 -0.000000 -45.298400
0.636721 17.894039 0.261838 69.926779 85.052681 69.715908 -10.802714 4.296225 -1.504118 3.669313 27.093852 -4.615665 -0.268083 1.627456 31.345530 1.513923 1.686686 28.200537 0.144299 0.000000 -53.652200 10.209627 -1.337939 1.219405 15.970903 -12.566591 -20.619822 1.541413 0.641731 4.813526 -3.850159 -20.226555 1.294167 -4.978500 0.000001 -43.192001
0.833281 17.881782 0.353123 68.340113 84.723181 67.755003 -10.791103 4.166767 -1.775527 4.287461 28.213261 -4.750721 -0.219241 1.635061 32.235670 1.626456 3.849937 27.507207 1.262700 -0.000000 -51.454100 10.223330 -1.432191 1.156370 16.249656 -12.413699 -20.087313 1.461382 0.486125 5.790063 -3.880913 -20.539152 1.761336 -5.196400 0.000000 -40.399000
1.028937 17.857289 0.443118 66.592259 84.315638 65.620383 -10.775105 4.033054 -2.061584 4.858509 29.388072 -4.840548 -0.188854 1.640352 32.980567 1.734704 6.268173 26.312084 2.458900 -0.000000 -49.453999 10.238689 -1.518727 1.068802 16.492060 -12.411153 -19.512806 1.384891 0.345788 6.703992 -3.913948 -20.822133 2.064508 -5.346800 -0.000000 -36.773300
1.224163 17.820421 0.532713 64.850251 83.839052 63.517764 -10.743953 3.897692 -2.350976 5.352879 30.583876 -4.943384 -0.182300 1.641644 33.588842 1.838394 8.781053 24.661582 3.599400 -0.000000 -47.543100 10.263096 -1.591159 0.984313 16.681551 -12.462611 -18.912240 1.311278 0.232246 7.507113 -3.962457 -21.101341 2.090028 -5.397400 -0.000001 -32.219000
1.418879 17.771127 0.622310 63.245760 83.312983 61.595366 -10.691540 3.761176 -2.634836 5.760320 31.751755 -5.082954 -0.202042 1.637237 34.061873 1.937552 11.228365 22.641807 4.563900 0.000000 -45.726900 10.300473 -1.644808 0.912117 16.812762 -12.516464 -18.280200 1.243716 0.151945 8.169111 -4.032076 -21.370666 1.724891 -5.303000 -0.000000 -26.709400
1.612879 17.709483 0.712042 61.856336 82.761261 59.938914 -10.615815 3.623472 -2.905931 6.078316 32.842403 -5.279483 -0.249861 1.627082 34.422553 2.027511 13.448918 20.311494 5.248100 -0.000001 -43.553800 10.350942 -1.676717 0.853530 16.888994 -12.542018 -17.616290 1.186432 0.106562 8.693866 -4.126038 -21.612466 0.864379 -5.013700 -0.000000 -20.261801
1.806162 17.635818 0.801725 60.668387 82.204612 58.560889 -10.520437 3.484607 -3.148145 6.279402 33.782289 -5.580108 -0.322257 1.609642 34.687234 2.110075 15.365997 17.829528 5.629700 0.000000 -41.526100 10.408144 -1.685136 0.818400 16.926177 -12.471329 -16.955891 1.139446 0.094112 9.124445 -4.254902 -21.850974 -0.542075 -4.507600 -0.000000 -13.142100
1.998404 17.550700 0.890714 59.657331 81.663743 57.441027 -10.411655 3.344800 -3.352842 6.357751 34.514927 -6.008994 -0.416346 1.587436 34.899996 2.179240 16.899566 15.254295 5.694600 0.000000 -39.181500 10.465068 -1.669763 0.801704 16.940796 -12.290286 -16.322683 1.104310 0.108026 9.524388 -4.421430 -22.081790 -2.509011 -3.762100 -0.000001 -5.664801
2.189405 17.454994 0.977976 58.747486 81.153440 56.513431 -10.300415 3.204297 -3.506246 6.299587 34.969205 -6.591039 -0.522608 1.562028 35.085757 2.237165 18.060495 12.738353 5.509800 -0.000000 -37.095600 10.510797 -1.632349 0.798779 16.956154 -11.983062 -15.758540 1.081293 0.137662 9.982132 -4.627547 -22.312242 -4.985310 177.219000 -0.000000 -1.617400
2.378825 17.349919 1.062192 57.855419 80.681730 55.692431 -10.198041 3.063446 -3.600668 6.110270 35.101791 -7.335822 -0.633957 1.537211 35.288935 2.280732 18.853406 10.326267 5.128101 0.000000 -35.055899 10.534024 -1.577165 0.798099 16.994061 -11.570318 -15.305035 1.073609 0.168923 10.604127 -4.867517 -22.522805 -7.903933 178.428400 -0.000000 -8.277400
2.566323 17.237019 1.141827 56.885353 80.248788 54.874545 -10.116547 2.922561 -3.629214 5.806436 34.879654 -8.234213 -0.740975 1.515867 35.538542 2.310657 19.321691 8.083155 4.625200 0.000000 -33.255500 10.523777 -1.510757 0.783766 17.073270 -11.099008 -15.006869 1.087449 0.185280 11.504685 -5.128230 -22.674101 -11.180702 179.842801 0.000000 -14.012600
2.751537 17.118092 1.215437 55.742749 79.844074 53.951017 -10.066173 2.782199 -3.589924 5.418065 34.295882 -9.260481 -0.836268 1.500692 35.860570 2.327180 19.510246 6.034865 4.062400 0.000000 -31.773601 10.472267 -1.441107 0.738336 17.204147 -10.633092 -14.902541 1.130264 0.169903 12.787141 -5.390897 -22.716883 -14.719108 -178.585800 -0.000000 -18.695700
2.934090 16.995157 1.281851 54.339339 79.447058 52.817807 -10.054307 2.643462 -3.485637 4.981798 33.368604 -10.378703 -0.915564 1.493932 36.274535 2.330671 19.463109 4.175615 3.482700 -0.000000 -30.576800 10.376752 -1.377052 0.647841 17.387412 -10.234016 -15.015405 1.206957 0.108303 14.518828 -5.634911 -22.613045 -18.394566 -176.941200 -0.000001 -22.261799
3.113685 16.870388 1.340271 52.591684 79.028782 51.379935 -10.085075 2.507641 -3.324158 4.533988 32.139829 -11.555632 -0.978240 1.497899 36.794538 2.321881 19.221428 2.480298 2.912600 0.000000 -29.610900 10.239029 -1.325588 0.509058 17.616941 -9.925187 -15.346366 1.315545 -0.007644 16.711719 -5.846940 -22.360989 -22.078809 -175.320800 -0.000001 -24.862400
3.290128 16.746160 1.390547 50.442444 78.554898 49.572332 -10.158092 2.376733 -3.116847 4.105938 30.668088 -12.762813 -1.026406 1.515170 37.425510 2.302736 18.829184 0.919105 2.368900 -0.000000 -28.822000 10.067039 -1.291616 0.328319 17.882426 -9.699042 -15.867063 1.445309 -0.178273 19.308620 -6.018358 -21.987386 -25.611894 -173.828800 0.000001 -26.510300
3.463419 16.625007 1.433069 47.865488 77.991182 47.367074 -10.267787 2.252985 -2.876794 3.720834 29.023128 -13.984263 -1.064374 1.548472 38.164804 2.276086 18.330793 -0.542793 1.859301 -0.000000 -28.119800 9.872336 -1.275299 0.121325 18.174575 -9.514455 -16.524682 1.579163 -0.393819 22.194289 -6.149052 -21.538837 -28.862527 -172.534800 0.000000 -27.403400
3.633781 16.509460 1.468810 44.888211 77.308331 44.790201 -10.402364 2.139093 -2.617011 3.393609 27.278701 -15.209962 -1.096370 1.599724 38.999461 2.246302 17.777247 -1.931945 1.388700 -0.000000 -27.428500 9.670257 -1.272671 -0.093493 18.485439 -9.326433 -17.249009 1.699122 -0.636617 25.214736 -6.241089 -21.055062 -31.727676 -171.475700 -0.000000 -27.731000
3.801627 16.402053 1.499381 41.600702 76.486849 41.928461 -10.544493 2.037330 -2.349172 3.129589 25.504892 -16.432791 -1.125069 1.668626 39.905277 2.218956 17.224738 -3.262916 0.960400 -0.000000 -26.693099 9.478259 -1.277064 -0.299333 18.806081 -9.102596 -17.963330 1.792566 -0.885052 28.204499 -6.296234 -20.554641 -34.150315 -170.660100 0.000000 -27.703200
3.967527 16.305039 1.526804 38.139844 75.521139 38.914206 -10.675117 1.947756 -2.083800 2.925527 23.765223 -17.647573 -1.150973 1.751838 40.850447 2.200341 16.731017 -4.538769 0.575900 0.000000 -25.883000 9.311768 -1.282373 -0.481883 19.127748 -8.822269 -18.594307 1.855406 -1.118356 31.005391 -6.315967 -20.039009 -36.113296 -170.080100 0.000000 -27.450400
4.132184 16.220351 1.553450 34.677760 74.419095 35.912607 -10.777100 1.867960 -1.829468 2.765204 22.111231 -18.847910 -1.172488 1.842368 41.796795 2.197109 16.352869 -5.752630 0.233800 -0.000000 -24.985001 9.182732 -1.285881 -0.631000 19.434258 -8.484897 -19.083289 1.892684 -1.321302 33.488108 -6.300430 -19.491307 -37.636737 -169.720300 0.000000 -27.045200
4.296366 16.149503 1.581805 31.381609 73.199621 33.083460 -10.840065 1.792958 -1.592717 2.622794 20.582652 -20.027715 -1.187145 1.930933 42.703838 2.215488 16.139539 -6.889660 -0.069300 -0.000000 -24.022200 9.095663 -1.288708 -0.739619 19.705167 -8.097761 -19.388087 1.915260 -1.484821 35.556681 -6.253191 -18.895890 -38.783112 -169.551400 0.000000 -26.683000
4.460763 16.093428 1.614316 28.383852 71.886057 30.552494 -10.861807 1.717383 -1.377811 2.466072 19.207984 -21.181062 -1.193359 2.008278 43.531800 2.260642 16.127544 -7.934079 -0.339900 0.000000 -23.022700 9.047911 -1.294599 -0.803352 19.917273 -7.670840 -19.481608 1.934788 -1.604888 37.146555 -6.177918 -18.238701 -39.615771 -169.546700 0.000000 -26.401099
4.626077 16.052573 1.653029 25.764863 70.501623 28.394882 -10.845907 1.637307 -1.187067 2.261846 18.007075 -22.303549 -1.191745 2.067128 44.244734 2.335976 16.335477 -8.878218 -0.586400 -0.000000 -21.965300 9.032332 -1.307084 -0.820287 20.048739 -7.212642 -19.348761 1.960670 -1.680120 38.222139 -6.079074 -17.512357 -40.196641 -169.679000 0.000001 -26.185700
4.792883 16.026941 1.699618 23.556694 69.067062 26.637943 -10.798035 1.551668 -1.020577 1.978504 16.989929 -23.390387 -1.184386 2.102626 44.810182 2.442989 16.765717 -9.715607 -0.816200 0.000001 -20.851600 9.041489 -1.327768 -0.790514 20.079572 -6.731128 -18.985379 1.998813 -1.710345 38.774451 -5.961455 -16.716541 -40.583787 -169.921100 0.000000 -26.066600
4.961618 16.016136 1.755210 21.750092 67.599654 25.268217 -10.723507 1.461892 -0.876927 1.591141 16.157715 -24.437134 -1.174410 2.112348 45.200677 2.580739 17.402644 -10.442746 -1.033600 0.000000 -19.701500 9.069836 -1.356368 -0.715187 19.995321 -6.230936 -18.394843 2.051054 -1.696005 38.814494 -5.828048 -15.855639 -40.813457 -170.252299 0.000000 -26.007300
